<mxfile host="app.diagrams.net" modified="2024-04-10T20:59:47.269Z" agent="Mozilla/5.0 (Macintosh; Intel Mac OS X 10_15_7) AppleWebKit/537.36 (KHTML, like Gecko) Chrome/123.0.0.0 Safari/537.36" version="24.2.3" etag="sRYjrO0DN5eCqrarCeVh" type="github">
  <diagram name="Page-1" id="Z43HYbOb06iZJgcrgzqE">
    <mxGraphModel>
      <root>
        <mxCell id="0" />
        <mxCell id="1" parent="0" />
      </root>
    </mxGraphModel>
  </diagram>
</mxfile>
